# xmcd
#
# Track frame offsets: 
#        151
#        14554
#        28833
#        40138
#        53766
#        66537
#        78975
#        93130
#        105363
#        119260
#        133948
#        146705
#        160862
#        174813
#        188282
#        203591
#        216605
#        230163
#
# Disc length: 3262 seconds
#
# Revision: 2
# Processed by: cddbd v1.5.2PL0 Copyright (c) Steve Scherf et al.
# Submitted via: ExactAudioCopy v0.95b4
#
DISCID=f80cbc12
DTITLE=Various Artist - The Essential Piano Blues Disc 1
DYEAR=1900
DGENRE=Blues
TTITLE0=Turner Parish/Trenches 
TTITLE1=Leroy Carr/Ain't It A Shame 
TTITLE2=Walter Roland/Big Mama 
TTITLE3=Roosevelt Sykes/44 Blues 
TTITLE4=Black Ivory King/Flying Crow Blues 
TTITLE5=Cripple Clarence Lofton/I Don't Know 
TTITLE6=Bumble Bee Slim/Rocks In My Pillow 
TTITLE7=Oliver Brown/Oh, You Devil You 
TTITLE8=Jim Clark/Fat Fanny Stomp 
TTITLE9=Will Ezell/Playing The Dozen 
TTITLE10=Rudy Foster/Black Gal Makes Thunder 
TTITLE11=Jesse James/Lonesome Day Blues 
TTITLE12=Louise Johnson/All Night Long 
TTITLE13=Eddie Miller/Whoopie 
TTITLE14=Pinetop Smith/Pine Top's Boogie Woogie 
TTITLE15=Skip James/If You Haven't Any Hay, Get On Down The Road 
TTITLE16=Speckled Red/Dirty Dozen No. 2 
TTITLE17=Joe Dean/I'm So Glad I'm 21 Years Old Today 
EXTD=william hale
EXTT0=
EXTT1=
EXTT2=
EXTT3=
EXTT4=
EXTT5=
EXTT6=
EXTT7=
EXTT8=
EXTT9=
EXTT10=
EXTT11=
EXTT12=
EXTT13=
EXTT14=
EXTT15=
EXTT16=
EXTT17=
PLAYORDER=
